Coordinates
version=1
nRows=24
nColumns=24
inDegrees=yes

Units are S.I. units (second, meters, Newtons, ...)
Angles are in degrees.

endheader
time	torso_tilt	torso_list	torso_rotation	torso_tx	torso_ty	torso_tz	lumbar_extension	lumbar_bending	lumbar_rotation	hip_flexion_r	hip_adduction_r	hip_rotation_r	knee_angle_r	ankle_angle_r	subtalar_angle_r	mtp_angle_r	hip_flexion_l	hip_adduction_l	hip_rotation_l	knee_angle_l	ankle_angle_l	subtalar_angle_l	mtp_angle_l
     30.48000000	     -8.87854851	      1.26412204	     -8.18175597	     -0.09620026	      0.98797523	      0.00938395	      7.64305881	     -3.27204514	      8.51941112	     19.55457848	      6.45544227	     -2.00333531	    -15.94198143	      0.18727203	     -5.72749120	      0.00000000	     -8.93812686	     -1.36310245	     -2.24172524	    -29.81197715	      4.04575494	      9.05129332	      0.00000000
     30.49000000	     -8.72116543	      1.29923109	     -8.20152784	     -0.09488361	      0.98834462	      0.01000682	      7.81038564	     -3.81702347	      8.26076848	     18.91248854	      7.24429067	     -1.76448707	    -16.81863202	      1.07095539	     -5.75377405	      0.00000000	     -8.07329127	     -2.27982694	     -2.84120663	    -33.02111213	      2.58593240	      9.88738799	      0.00000000
     30.50000000	     -8.57355597	      1.30143902	     -8.17749524	     -0.09363922	      0.98877552	      0.01067583	      7.90796679	     -4.24435835	      7.93195203	     18.29064698	      7.89966788	     -1.65555990	    -17.59322076	      2.00199402	     -5.59474564	      0.00000000	     -6.99614781	     -3.10045963	     -3.33862814	    -36.36946976	      1.07276324	     10.62920237	      0.00000000
     30.51000000	     -8.45388346	      1.29176277	     -8.19224650	     -0.09259598	      0.98909368	      0.01141993	      8.05273395	     -4.54198315	      7.66070506	     17.58275562	      8.40901740	     -1.61174210	    -18.27963594	      2.98588574	     -5.27124646	      0.00000000	     -5.81459992	     -3.78055655	     -3.79255899	    -39.82385781	     -0.53578328	     10.73519165	      0.00000000
     30.52000000	     -8.38046966	      1.26146903	     -8.17132333	     -0.09188213	      0.98929678	      0.01220310	      8.18640964	     -4.74377956	      7.35954070	     16.89322579	      8.83212844	     -1.58114077	    -18.87395931	      3.97441468	     -4.98443772	      0.00000000	     -4.37804377	     -4.37037907	     -4.00158020	    -43.49702415	     -2.12129692	     10.85246579	      0.00000000
     30.53000000	     -8.35258155	      1.20197883	     -8.14145563	     -0.09144917	      0.98946558	      0.01313446	      8.37759224	     -4.83730512	      7.09193293	     16.12185453	      9.18309464	     -1.49017395	    -19.32814316	      4.91925752	     -4.82610235	      0.00000000	     -2.81354077	     -4.85843969	     -4.07159544	    -47.24731450	     -3.82918971	     10.61505915	      0.00000000
     30.54000000	     -8.35755145	      1.12257415	     -8.05700984	     -0.09122796	      0.98972929	      0.01415008	      8.67752797	     -4.88552447	      6.84829743	     15.21853022	      9.51489484	     -1.36141205	    -19.69724522	      5.75253201	     -4.85461798	      0.00000000	     -1.26879411	     -5.31752680	     -4.09348979	    -50.91081032	     -5.47518227	     10.11241113	      0.00000000
     30.55000000	     -8.43526042	      1.03131746	     -7.85900551	     -0.09138176	      0.98978109	      0.01516943	      9.04484005	     -4.93116641	      6.46735212	     14.31944968	      9.87117150	     -1.04914725	    -20.07357242	      6.64399435	     -4.96177976	      0.00000000	      0.30437889	     -5.79456975	     -4.24036461	    -54.39225128	     -6.57353349	      9.36758579	      0.00000000
     30.56000000	     -8.51708855	      0.94360588	     -7.73769225	     -0.09178585	      0.98967487	      0.01606776	      9.45896415	     -4.97583291	      6.22632130	     13.38006561	     10.21252715	     -0.76667647	    -20.39632257	      7.44803317	     -5.14066887	      0.00000000	      1.79123451	     -6.24527868	     -4.39894578	    -57.56589180	     -6.93689800	      7.82053705	      0.00000000
     30.57000000	     -8.56589225	      0.82815858	     -7.55639921	     -0.09202662	      0.98991911	      0.01701742	      9.84508961	     -4.93603245	      5.95796983	     12.32826207	     10.44175446	     -0.53146741	    -20.56206786	      8.19141166	     -5.18689463	      0.00000000	      3.17136736	     -6.60881423	     -4.50269585	    -60.36391325	     -6.26655773	      5.90376700	      0.00000000
     30.58000000	     -8.70101642	      0.70934047	     -7.40247108	     -0.09287803	      0.99025115	      0.01793258	     10.31362811	     -4.83824478	      5.77498826	     11.23183890	     10.58649070	     -0.29807041	    -20.54194674	      8.79577396	     -5.18969447	      0.00000000	      4.62372477	     -6.85155288	     -4.54982906	    -62.89565814	     -5.28512857	      3.25493717	      0.00000000
     30.59000000	     -8.85311609	      0.57627463	     -7.23878077	     -0.09386628	      0.99065700	      0.01885360	     10.84348369	     -4.65684584	      5.68457480	     10.07251482	     10.61488478	     -0.23241373	    -20.49819842	      9.37648202	     -5.11235429	      0.00000000	      6.05614661	     -7.00240205	     -4.49398140	    -65.16413280	     -4.36025147	      0.40657998	      0.00000000
     30.60000000	     -8.96475461	      0.44866069	     -7.02456953	     -0.09471372	      0.99127606	      0.01962150	     11.26013130	     -4.39076391	      5.42742797	      8.93530292	     10.50883773	     -0.12354464	    -20.40322999	     10.00469795	     -4.88000745	      0.00000000	      7.46081054	     -6.99639517	     -4.40029249	    -67.05916809	     -3.24679100	     -1.76427653	      0.00000000
     30.61000000	     -9.06818206	      0.32422170	     -6.82562246	     -0.09556308	      0.99218800	      0.02034882	     11.57875799	     -4.11367187	      5.19521156	      7.85458929	     10.37059405	     -0.02873268	    -20.19240859	     10.43455668	     -4.75442652	      0.00000000	      8.95405533	     -6.95127937	     -4.30927842	    -68.67014736	     -2.58472025	     -3.93554790	      0.00000000
     30.62000000	     -9.19989961	      0.20771905	     -6.65878844	     -0.09670086	      0.99304428	      0.02101424	     11.93109945	     -3.84263828	      5.00094715	      6.75838979	     10.23822599	      0.07848581	    -19.92289776	     10.80272171	     -4.61569134	      0.00000000	     10.46183529	     -6.91499145	     -4.17247386	    -70.03073554	     -1.67502691	     -5.06793848	      0.00000000
     30.63000000	     -9.30510054	      0.10712458	     -6.45751806	     -0.09777458	      0.99387965	      0.02156363	     12.09172396	     -3.52098527	      4.71864431	      5.92446609	      9.98953908	      0.10425251	    -19.79669181	     11.24463100	     -4.42736246	      0.00000000	     12.07992127	     -6.72150403	     -4.04203443	    -71.06582237	     -0.81995501	     -5.95460162	      0.00000000
     30.64000000	     -9.39428689	      0.00570974	     -6.24615041	     -0.09883282	      0.99496759	      0.02207155	     12.20901986	     -3.18323199	      4.43899388	      5.09102378	      9.68388717	      0.00642814	    -19.60217990	     11.60213059	     -4.11011827	      0.00000000	     13.64612654	     -6.46531812	     -3.72008896	    -71.76114597	      0.04546744	     -5.81711899	      0.00000000
     30.65000000	     -9.44095301	     -0.09587929	     -6.10605430	     -0.09979010	      0.99614593	      0.02260656	     12.29269154	     -2.82460072	      4.19589944	      4.15524679	      9.34407627	     -0.10899481	    -19.19272281	     11.89531982	     -3.68640411	      0.00000000	     15.11060592	     -6.19701596	     -3.50439025	    -72.06957385	      0.96235952	     -5.51834990	      0.00000000
     30.66000000	     -9.51384132	     -0.19800856	     -5.93151572	     -0.10089589	      0.99736196	      0.02311743	     12.31193113	     -2.49655657	      3.95811407	      3.35520905	      9.00519194	     -0.31470838	    -18.82106130	     12.07267066	     -3.19670267	      0.00000000	     16.64154029	     -5.91180380	     -3.32288602	    -72.10521147	      1.82392385	     -5.30095696	      0.00000000
     30.67000000	     -9.59314930	     -0.29022459	     -5.77849824	     -0.10206939	      0.99855366	      0.02354675	     12.33650547	     -2.16194026	      3.72885506	      2.57711501	      8.64934675	     -0.55944279	    -18.45784502	     12.28588054	     -2.67911910	      0.00000000	     18.07780969	     -5.58907095	     -3.16769923	    -71.76529759	      2.78734018	     -4.91456728	      0.00000000
     30.68000000	     -9.66467867	     -0.36452593	     -5.61783172	     -0.10322930	      0.99994589	      0.02382722	     12.32638364	     -1.84682826	      3.45914222	      1.80916489	      8.26945476	     -0.81028864	    -18.01959079	     12.34621910	     -2.14554667	      0.00000000	     19.45051878	     -5.21627905	     -2.97656126	    -71.12630702	      3.68047657	     -4.35673394	      0.00000000
     30.69000000	     -9.74856084	     -0.42922052	     -5.46273585	     -0.10444040	      1.00119496	      0.02403002	     12.32378454	     -1.56000785	      3.21198943	      1.05650760	      7.91423953	     -1.07278374	    -17.60095197	     12.35183837	     -1.67224371	      0.00000000	     20.73011761	     -4.82648685	     -2.82002148	    -70.09864744	      4.32106436	     -4.08185684	      0.00000000
     30.70000000	     -9.85423430	     -0.49450942	     -5.29596382	     -0.10574368	      1.00223211	      0.02422676	     12.41628109	     -1.33654101	      2.94891699	      0.16438981	      7.65093411	     -1.20106408	    -17.03374584	     12.26807023	     -1.30129816	      0.00000000	     21.80870141	     -4.52522222	     -2.76537868	    -68.70649238	      5.03376846	     -4.32556838	      0.00000000
     30.71000000	     -9.95011449	     -0.53959985	     -5.12826883	     -0.10694600	      1.00336129	      0.02427147	     12.46433686	     -1.15916718	      2.72216430	     -0.66769707	      7.39690793	     -1.44183190	    -16.44880935	     12.24230275	     -0.91467787	      0.00000000	     22.83084641	     -4.20659014	     -2.61102479	    -67.04447460	      5.59532746	     -4.59227159	      0.00000000
